<svg width="378" height="540" viewBox="0 0 378 540" fill="none" xmlns="http://www.w3.org/2000/svg">
<rect x="1.5" y="1.5" width="375" height="537" rx="187.5" stroke="black" stroke-width="3"/>
<rect x="12" y="17" width="354" height="506" rx="177" fill="white"/>
<path d="M50.7773 378V358.094H56.9023C58.6523 358.094 60.2155 358.49 61.5918 359.283C62.9772 360.067 64.0573 361.188 64.832 362.646C65.6068 364.096 65.9941 365.745 65.9941 367.596V368.512C65.9941 370.362 65.6113 372.007 64.8457 373.447C64.0892 374.887 63.0182 376.004 61.6328 376.797C60.2474 377.59 58.6842 377.991 56.9434 378H50.7773ZM54.8789 361.416V374.705H56.8613C58.4655 374.705 59.6914 374.181 60.5391 373.133C61.3867 372.085 61.8197 370.585 61.8379 368.635V367.582C61.8379 365.559 61.4186 364.027 60.5801 362.988C59.7415 361.94 58.5156 361.416 56.9023 361.416H54.8789ZM68.1133 370.467C68.1133 368.999 68.3958 367.691 68.9609 366.543C69.526 365.395 70.3372 364.506 71.3945 363.877C72.4609 363.248 73.696 362.934 75.0996 362.934C77.0957 362.934 78.7227 363.544 79.9805 364.766C81.2474 365.987 81.9538 367.646 82.0996 369.742L82.127 370.754C82.127 373.023 81.4935 374.846 80.2266 376.223C78.9596 377.59 77.2598 378.273 75.127 378.273C72.9941 378.273 71.2897 377.59 70.0137 376.223C68.7467 374.855 68.1133 372.996 68.1133 370.645V370.467ZM72.0645 370.754C72.0645 372.158 72.3288 373.233 72.8574 373.98C73.3861 374.719 74.1426 375.088 75.127 375.088C76.084 375.088 76.8314 374.723 77.3691 373.994C77.9069 373.256 78.1758 372.08 78.1758 370.467C78.1758 369.09 77.9069 368.024 77.3691 367.268C76.8314 366.511 76.0749 366.133 75.0996 366.133C74.1335 366.133 73.3861 366.511 72.8574 367.268C72.3288 368.015 72.0645 369.177 72.0645 370.754ZM97.4258 372.627L99.3672 363.207H103.182L99.4082 378H96.0996L93.2969 368.689L90.4941 378H87.1992L83.4258 363.207H87.2402L89.168 372.613L91.875 363.207H94.7324L97.4258 372.627ZM108.787 363.207L108.91 364.916C109.967 363.594 111.385 362.934 113.162 362.934C114.73 362.934 115.896 363.394 116.662 364.314C117.428 365.235 117.82 366.611 117.838 368.443V378H113.887V368.539C113.887 367.701 113.704 367.094 113.34 366.721C112.975 366.338 112.369 366.146 111.521 366.146C110.41 366.146 109.576 366.62 109.02 367.568V378H105.068V363.207H108.787ZM125.016 378H121.051V357H125.016V378ZM127.668 370.467C127.668 368.999 127.951 367.691 128.516 366.543C129.081 365.395 129.892 364.506 130.949 363.877C132.016 363.248 133.251 362.934 134.654 362.934C136.65 362.934 138.277 363.544 139.535 364.766C140.802 365.987 141.508 367.646 141.654 369.742L141.682 370.754C141.682 373.023 141.048 374.846 139.781 376.223C138.514 377.59 136.814 378.273 134.682 378.273C132.549 378.273 130.844 377.59 129.568 376.223C128.301 374.855 127.668 372.996 127.668 370.645V370.467ZM131.619 370.754C131.619 372.158 131.883 373.233 132.412 373.98C132.941 374.719 133.697 375.088 134.682 375.088C135.639 375.088 136.386 374.723 136.924 373.994C137.462 373.256 137.73 372.08 137.73 370.467C137.73 369.09 137.462 368.024 136.924 367.268C136.386 366.511 135.63 366.133 134.654 366.133C133.688 366.133 132.941 366.511 132.412 367.268C131.883 368.015 131.619 369.177 131.619 370.754ZM152.688 378C152.505 377.645 152.373 377.202 152.291 376.674C151.334 377.74 150.09 378.273 148.559 378.273C147.109 378.273 145.906 377.854 144.949 377.016C144.001 376.177 143.527 375.12 143.527 373.844C143.527 372.276 144.106 371.073 145.264 370.234C146.43 369.396 148.112 368.972 150.309 368.963H152.127V368.115C152.127 367.432 151.949 366.885 151.594 366.475C151.247 366.064 150.696 365.859 149.939 365.859C149.274 365.859 148.75 366.019 148.367 366.338C147.993 366.657 147.807 367.094 147.807 367.65H143.855C143.855 366.794 144.12 366.001 144.648 365.271C145.177 364.542 145.924 363.973 146.891 363.562C147.857 363.143 148.941 362.934 150.145 362.934C151.967 362.934 153.412 363.394 154.479 364.314C155.554 365.226 156.092 366.511 156.092 368.17V374.582C156.101 375.986 156.297 377.048 156.68 377.768V378H152.688ZM149.42 375.252C150.003 375.252 150.541 375.124 151.033 374.869C151.525 374.605 151.89 374.254 152.127 373.816V371.273H150.65C148.673 371.273 147.62 371.957 147.492 373.324L147.479 373.557C147.479 374.049 147.652 374.454 147.998 374.773C148.344 375.092 148.818 375.252 149.42 375.252ZM158.512 370.494C158.512 368.188 159.027 366.352 160.057 364.984C161.096 363.617 162.513 362.934 164.309 362.934C165.749 362.934 166.938 363.471 167.877 364.547V357H171.842V378H168.273L168.082 376.428C167.098 377.658 165.831 378.273 164.281 378.273C162.54 378.273 161.141 377.59 160.084 376.223C159.036 374.846 158.512 372.937 158.512 370.494ZM162.463 370.781C162.463 372.167 162.704 373.229 163.188 373.967C163.671 374.705 164.372 375.074 165.293 375.074C166.514 375.074 167.376 374.559 167.877 373.529V367.691C167.385 366.661 166.533 366.146 165.32 366.146C163.415 366.146 162.463 367.691 162.463 370.781ZM187.496 358.094L192.609 372.531L197.695 358.094H203.082V378H198.967V372.559L199.377 363.166L194.004 378H191.188L185.828 363.18L186.238 372.559V378H182.137V358.094H187.496ZM211.928 372.408L214.662 363.207H218.9L212.953 380.297L212.625 381.076C211.741 383.008 210.283 383.975 208.25 383.975C207.676 383.975 207.092 383.888 206.5 383.715V380.721L207.102 380.734C207.849 380.734 208.405 380.62 208.77 380.393C209.143 380.165 209.435 379.786 209.645 379.258L210.109 378.041L204.928 363.207H209.18L211.928 372.408ZM235.061 370.713H231.793V378H227.691V358.094H235.088C237.439 358.094 239.253 358.618 240.529 359.666C241.805 360.714 242.443 362.195 242.443 364.109C242.443 365.467 242.147 366.602 241.555 367.514C240.971 368.416 240.083 369.136 238.889 369.674L243.195 377.809V378H238.793L235.061 370.713ZM231.793 367.391H235.102C236.132 367.391 236.929 367.131 237.494 366.611C238.059 366.083 238.342 365.358 238.342 364.438C238.342 363.499 238.073 362.76 237.535 362.223C237.007 361.685 236.191 361.416 235.088 361.416H231.793V367.391ZM252.123 378.273C249.954 378.273 248.186 377.608 246.818 376.277C245.46 374.947 244.781 373.174 244.781 370.959V370.576C244.781 369.09 245.068 367.764 245.643 366.598C246.217 365.422 247.028 364.52 248.076 363.891C249.133 363.253 250.337 362.934 251.686 362.934C253.709 362.934 255.299 363.572 256.457 364.848C257.624 366.124 258.207 367.933 258.207 370.275V371.889H248.787C248.915 372.855 249.298 373.63 249.936 374.213C250.583 374.796 251.398 375.088 252.383 375.088C253.905 375.088 255.094 374.536 255.951 373.434L257.893 375.607C257.3 376.446 256.498 377.102 255.486 377.576C254.475 378.041 253.354 378.273 252.123 378.273ZM251.672 366.133C250.888 366.133 250.25 366.397 249.758 366.926C249.275 367.454 248.965 368.211 248.828 369.195H254.324V368.881C254.306 368.006 254.069 367.331 253.613 366.857C253.158 366.374 252.51 366.133 251.672 366.133ZM268.475 373.912C268.475 373.429 268.233 373.051 267.75 372.777C267.276 372.495 266.51 372.244 265.453 372.025C261.935 371.287 260.176 369.792 260.176 367.541C260.176 366.229 260.718 365.135 261.803 364.26C262.896 363.376 264.323 362.934 266.082 362.934C267.96 362.934 269.459 363.376 270.58 364.26C271.71 365.144 272.275 366.292 272.275 367.705H268.324C268.324 367.14 268.142 366.675 267.777 366.311C267.413 365.937 266.843 365.75 266.068 365.75C265.403 365.75 264.888 365.9 264.523 366.201C264.159 366.502 263.977 366.885 263.977 367.35C263.977 367.787 264.182 368.143 264.592 368.416C265.011 368.68 265.713 368.913 266.697 369.113C267.682 369.305 268.511 369.523 269.186 369.77C271.273 370.535 272.316 371.861 272.316 373.748C272.316 375.097 271.738 376.191 270.58 377.029C269.423 377.859 267.928 378.273 266.096 378.273C264.856 378.273 263.753 378.055 262.787 377.617C261.83 377.171 261.078 376.564 260.531 375.799C259.984 375.024 259.711 374.19 259.711 373.297H263.457C263.493 373.999 263.753 374.536 264.236 374.91C264.719 375.284 265.367 375.471 266.178 375.471C266.934 375.471 267.504 375.329 267.887 375.047C268.279 374.755 268.475 374.377 268.475 373.912ZM283.732 376.496C282.757 377.681 281.408 378.273 279.686 378.273C278.1 378.273 276.887 377.818 276.049 376.906C275.219 375.995 274.796 374.66 274.777 372.9V363.207H278.729V372.764C278.729 374.304 279.43 375.074 280.834 375.074C282.174 375.074 283.094 374.609 283.596 373.68V363.207H287.561V378H283.842L283.732 376.496ZM294.246 363.207L294.369 364.861C295.417 363.576 296.835 362.934 298.621 362.934C300.526 362.934 301.834 363.686 302.545 365.189C303.584 363.686 305.065 362.934 306.988 362.934C308.592 362.934 309.786 363.403 310.57 364.342C311.354 365.271 311.746 366.675 311.746 368.553V378H307.781V368.566C307.781 367.728 307.617 367.117 307.289 366.734C306.961 366.342 306.382 366.146 305.553 366.146C304.368 366.146 303.548 366.712 303.092 367.842L303.105 378H299.154V368.58C299.154 367.723 298.986 367.104 298.648 366.721C298.311 366.338 297.737 366.146 296.926 366.146C295.805 366.146 294.993 366.611 294.492 367.541V378H290.541V363.207H294.246ZM321.604 378.273C319.434 378.273 317.666 377.608 316.299 376.277C314.941 374.947 314.262 373.174 314.262 370.959V370.576C314.262 369.09 314.549 367.764 315.123 366.598C315.697 365.422 316.508 364.52 317.557 363.891C318.614 363.253 319.817 362.934 321.166 362.934C323.189 362.934 324.78 363.572 325.938 364.848C327.104 366.124 327.688 367.933 327.688 370.275V371.889H318.268C318.395 372.855 318.778 373.63 319.416 374.213C320.063 374.796 320.879 375.088 321.863 375.088C323.385 375.088 324.575 374.536 325.432 373.434L327.373 375.607C326.781 376.446 325.979 377.102 324.967 377.576C323.955 378.041 322.834 378.273 321.604 378.273ZM321.152 366.133C320.368 366.133 319.73 366.397 319.238 366.926C318.755 367.454 318.445 368.211 318.309 369.195H323.805V368.881C323.786 368.006 323.549 367.331 323.094 366.857C322.638 366.374 321.991 366.133 321.152 366.133Z" fill="#2586CD"/>
<g clip-path="url(#clip0)">
<path d="M239 159H209V99H169V159H139L189 209L239 159ZM282.38 224.32C280.28 222.08 266.27 207.09 262.27 203.18C259.467 200.493 255.733 198.995 251.85 199H234.28L264.92 228.94H229.48C228.998 228.931 228.523 229.049 228.101 229.283C227.68 229.516 227.328 229.857 227.08 230.27L218.92 249H159.08L150.92 230.27C150.67 229.858 150.318 229.519 149.897 229.286C149.476 229.052 149.001 228.933 148.52 228.94H113.08L143.71 199H126.15C122.18 199 118.39 200.59 115.73 203.18C111.73 207.1 97.7198 222.09 95.6198 224.32C90.7298 229.53 88.0398 233.68 89.3198 238.81L94.9298 269.55C96.2098 274.69 101.84 278.91 107.45 278.91H270.57C276.18 278.91 281.81 274.69 283.09 269.55L288.7 238.81C289.96 233.68 287.28 229.53 282.38 224.32V224.32Z" fill="#2586CD"/>
</g>
<defs>
<clipPath id="clip0">
<rect width="200" height="200" fill="white" transform="translate(89 89)"/>
</clipPath>
</defs>
</svg>
